name rise34.3697peak60.0498fall86.3158.mot
datacolumns 19
datarows 18
range 16.28493900000000 16.31326900000000
endheader
time	ground_force1_vx	ground_force1_vy	ground_force1_vz	ground_force1_px	ground_force1_py	ground_force1_pz	ground_force2_vx	ground_force2_vy	ground_force2_vz	ground_force2_px	ground_force2_py	ground_force2_pz	ground_torque1_x	ground_torque1_y	ground_torque1_z	ground_torque2_x	ground_torque2_y	ground_torque2_z	
16.28493900000000	-42.18995100000000	826.45970899999998	56.00146800000000	0.17586800000000	0.00000000000000	0.11566000000000	0.00000000000000	0.00000000000000	0.00000000000000	0.00000000000000	0.00000000000000	0.00000000000000	0.00000000000000	27.89850000000000	0.00000000000000	0.00000000000000	0.00000000000000	0.00000000000000	
16.28660400000000	-42.58945400000000	825.35051499999997	56.03112700000000	0.17511400000000	0.00000000000000	0.11560800000000	0.00000000000000	0.00000000000000	0.00000000000000	0.00000000000000	0.00000000000000	0.00000000000000	0.00000000000000	27.84447000000000	0.00000000000000	0.00000000000000	0.00000000000000	0.00000000000000	
16.28826900000000	-43.00517500000000	824.11825799999997	56.04553300000000	0.17435600000000	0.00000000000000	0.11555400000000	0.00000000000000	0.00000000000000	0.00000000000000	0.00000000000000	0.00000000000000	0.00000000000000	0.00000000000000	27.78964500000000	0.00000000000000	0.00000000000000	0.00000000000000	0.00000000000000	
16.28993500000000	-43.43758400000000	822.76058300000000	56.04415600000000	0.17359300000000	0.00000000000000	0.11549800000000	0.00000000000000	0.00000000000000	0.00000000000000	0.00000000000000	0.00000000000000	0.00000000000000	0.00000000000000	27.73407800000000	0.00000000000000	0.00000000000000	0.00000000000000	0.00000000000000	
16.29161100000000	-43.88709600000000	821.27516700000001	56.02647300000000	0.17282400000000	0.00000000000000	0.11544000000000	0.00000000000000	0.00000000000000	0.00000000000000	0.00000000000000	0.00000000000000	0.00000000000000	0.00000000000000	27.67781100000000	0.00000000000000	0.00000000000000	0.00000000000000	0.00000000000000	
16.29327200000000	-44.35406600000000	819.65971800000000	55.99196700000000	0.17204900000000	0.00000000000000	0.11537900000000	0.00000000000000	0.00000000000000	0.00000000000000	0.00000000000000	0.00000000000000	0.00000000000000	0.00000000000000	27.62087900000000	0.00000000000000	0.00000000000000	0.00000000000000	0.00000000000000	
16.29494000000000	-44.83878100000000	817.91197799999998	55.94013000000000	0.17126600000000	0.00000000000000	0.11531700000000	0.00000000000000	0.00000000000000	0.00000000000000	0.00000000000000	0.00000000000000	0.00000000000000	0.00000000000000	27.56330600000000	0.00000000000000	0.00000000000000	0.00000000000000	0.00000000000000	
16.29660400000000	-45.34146300000000	816.02972199999999	55.87046300000000	0.17047700000000	0.00000000000000	0.11525300000000	0.00000000000000	0.00000000000000	0.00000000000000	0.00000000000000	0.00000000000000	0.00000000000000	0.00000000000000	27.50510900000000	0.00000000000000	0.00000000000000	0.00000000000000	0.00000000000000	
16.29828500000000	-45.86225800000000	814.01076200000000	55.78248100000000	0.16967900000000	0.00000000000000	0.11518700000000	0.00000000000000	0.00000000000000	0.00000000000000	0.00000000000000	0.00000000000000	0.00000000000000	0.00000000000000	27.44629200000000	0.00000000000000	0.00000000000000	0.00000000000000	0.00000000000000	
16.29994100000000	-46.40123600000000	811.85294699999997	55.67571100000000	0.16887400000000	0.00000000000000	0.11511800000000	-0.66451400000000	3.62897200000000	0.20602400000000	0.00000000000000	0.00000000000000	0.00000000000000	0.00000000000000	27.38685000000000	0.00000000000000	0.00000000000000	0.04881800000000	0.00000000000000	
16.30161700000000	-46.95838700000000	809.55416200000002	55.54969500000000	0.16806000000000	0.00000000000000	0.11504700000000	-1.02404400000000	7.24363500000000	0.30793400000000	0.00000000000000	0.00000000000000	0.00000000000000	0.00000000000000	27.32676800000000	0.00000000000000	0.00000000000000	0.07099500000000	0.00000000000000	
16.30327300000000	-47.53361700000000	807.11233700000003	55.40399100000000	0.16723700000000	0.00000000000000	0.11497400000000	-1.42126400000000	11.64590900000000	0.41804700000000	0.00000000000000	0.00000000000000	0.00000000000000	0.00000000000000	27.26601800000000	0.00000000000000	0.00000000000000	0.09447100000000	0.00000000000000	
16.30493600000000	-48.12674500000000	804.52544200000000	55.23817600000000	0.16640600000000	0.00000000000000	0.11489800000000	-1.84096900000000	16.79891300000000	0.53131600000000	0.00000000000000	0.00000000000000	0.00000000000000	0.00000000000000	27.20456300000000	0.00000000000000	0.00000000000000	0.11802400000000	0.00000000000000	
16.30660800000000	-48.73750200000000	801.79149399999994	55.05184900000000	0.16556500000000	0.00000000000000	0.11482000000000	-2.26482800000000	22.63217800000000	0.64180100000000	0.00000000000000	0.00000000000000	0.00000000000000	0.00000000000000	27.14235300000000	0.00000000000000	0.00000000000000	0.14024700000000	0.00000000000000	
16.30827400000000	-49.36552500000000	798.90855899999997	54.84462800000000	0.16471500000000	0.00000000000000	0.11474000000000	-2.67251700000000	29.04710700000000	0.74302900000000	0.37344900000000	0.00000000000000	-0.07084900000000	0.00000000000000	27.07932800000000	0.00000000000000	0.00000000000000	0.24777200000000	0.00000000000000	
16.30994100000000	-50.01035900000000	795.87475400000005	54.61615800000000	0.16385600000000	0.00000000000000	0.11465700000000	-3.04311200000000	35.92543900000000	0.82841300000000	0.38006200000000	0.00000000000000	-0.07150800000000	0.00000000000000	27.01541500000000	0.00000000000000	0.00000000000000	0.27191800000000	0.00000000000000	
16.31160700000000	-50.67144900000000	792.68825200000003	54.36610700000000	0.16298700000000	0.00000000000000	0.11457100000000	-3.35656000000000	43.13958400000000	0.89170400000000	0.38585100000000	0.00000000000000	-0.07209100000000	0.00000000000000	26.95053000000000	0.00000000000000	0.00000000000000	0.28605800000000	0.00000000000000	
16.31326900000000	-51.34814800000000	789.34728299999995	54.09417400000000	0.16211000000000	0.00000000000000	0.11448300000000	-3.59504500000000	50.56334300000000	0.92739000000000	0.39096400000000	0.00000000000000	-0.07261100000000	0.00000000000000	26.88457800000000	0.00000000000000	0.00000000000000	0.28784300000000	0.00000000000000	
